<?xml version="1.0" encoding="utf-8"?>
<!-- Generator: Adobe Adobe Illustrator 24.2.0, SVG Export Plug-In . SVG Version: 6.00 Build 0)  -->
<svg version="1.1" xmlns="http://www.w3.org/2000/svg" xmlns:xlink="http://www.w3.org/1999/xlink" x="0px" y="0px"
	 width="941.22px" height="720px" viewBox="0 0 941.22 720" style="enable-background:new 0 0 941.22 720;" xml:space="preserve">
<style type="text/css">
	.st0{fill:#3A4576;}
	.st1{fill:#FFFFFF;}
	.st2{display:none;}
	.st3{display:inline;}
	.st4{fill:#F3CC2A;}
	.st5{opacity:0.502;}
	.st6{fill:none;stroke:#EED554;stroke-miterlimit:10;}
	.st7{opacity:0.1608;}
	.st8{opacity:0.6;}
	.st9{fill:#EDCB2D;}
	.st10{display:none;fill:#EFCB2C;}
	.st11{font-family:'GoodTimesRg-Regular';}
	.st12{font-size:148.6212px;}
	.st13{letter-spacing:11;}
	.st14{display:none;fill:#374576;}
	.st15{font-size:38.3787px;}
	.st16{letter-spacing:3;}
</style>
<g id="Layer_1_1_">
</g>
<g id="Layer_1">
</g>
<g id="Layer_2" class="st2">
</g>
<g id="Layer_4">
</g>
<g id="Layer_5">
</g>
<g id="Layer_6">
	<g class="st5">
		<path class="st6" d="M530.85,309.95c-1.32-2.79-0.62-4.73,1.64-6.32c12.28-8.59,25.46-10.18,39.12-4.17
			c19.92,8.76,30.56,25.1,35.18,45.65c4.25,18.93,0.74,36.79-7.91,54.09c-9.3,18.58-19.66,36.48-31.31,53.66
			c-2.34,3.44-4.49,7.02-6.83,10.46c-1.65,2.43-4.02,2.96-6.63,1.74c-11.72-5.48-23.39-11.03-35.11-16.51
			c-12.86-6.01-25.74-11.98-38.61-17.96c-2.22-1.04-3.87-2.43-2.87-5.22c6.48-18.03,8.49-37.2,14.07-55.43
			c5.57-18.19,13.72-35.24,25.17-50.6c1.82-2.44,3.82-2.97,6.77-1.92c4.83-0.59,8.33,2.22,12.08,3.9c3.25,1.45,5.86,1.47,9.02-0.19
			c11.99-6.28,21.41-3.99,30,6.64c3.33,4.12,6.05,8.55,8.27,13.32c2.23,4.81,7.09,5.58,11.31,7.17c1.61,0.6,1.22-1.1,1.03-2.05
			c-1.18-5.98-3.69-11.46-6.67-16.69c-3.65-6.41-8.45-11.89-14.57-16.07c-10.93-7.46-22.2-8.78-33.82-1.54
			c-0.87,0.54-1.73,1.11-2.64,1.58C534.12,315.25,531.92,314.16,530.85,309.95z"/>
		<path class="st6" d="M421.22,217.48c-1.15-3.58,0.83-5.33,3.48-6.26c8.79-3.08,17.72-4.79,27.21-4.18
			c9.2,0.6,17.62,2.86,25.35,7.83c9.05,5.82,14.69,14.01,17,24.51c3.23,14.71-0.31,28.63-5.1,42.34
			c-7.01,20.09-17.38,38.3-30.95,54.72c-6.69,8.09-12.94,16.5-18.24,25.59c-3.59,6.17-5.2,6.53-11.61,3.51
			c-21.15-9.97-42.27-20.03-63.55-29.72c-13.46-6.13-10.98-5.62-7.79-16.88c6.63-23.39,14.44-46.37,24.76-68.41
			c4.72-10.08,11.58-18.69,19.98-26.02c2.57-2.24,5.38-2.66,8.56-0.46c1.93-0.48,3.53-0.37,5.13,0.34c0.93,0.41,1.99,0.6,2.83,1.17
			c7.68,5.22,15.83,6.2,24.74,3.48c4.15-1.27,8.69-0.98,12.96-0.16c9.7,1.86,16.39,6.86,18.05,18.06c0.55,3.71,2.33,6.07,5.78,7.4
			c3.14,1.21,4.15,0.61,4.38-2.84c1.12-16.4-9.1-29.54-25.42-32.32c-9.58-1.63-19.11-1.42-28.35,2.13c-1.82,0.7-3.73,1.14-5.64,0.71
			C422.56,221.54,420.53,220.7,421.22,217.48z"/>
		<path class="st6" d="M521.68,511.97c1.36,4.51,0.62,6.04-4.41,8.72c-20.29,10.8-41.74,5.57-54.4-13.02
			c-8.48-12.46-9.39-26.5-3.01-40.54c3.76-8.29,7.68-16.5,10.91-25.03c1.06-2.81,4.15-3.89,7.13-2.5c8.88,4.15,17.72,8.37,26.6,12.5
			c13.66,6.35,27.32,12.7,41.02,18.96c6.21,2.84,6.9,5.44,3.08,11c-4.37,6.36-8.67,12.78-12.58,19.42c-1.82,3.1-4.03,3.65-7.32,2.99
			c-2.37,0.73-4.28-0.12-6.16-0.9c-2.25-0.94-4.42-2.06-6.57-3.19c-2.43-1.28-4.68-1.19-6.8,0.55c-10.19,8.37-23.8,3.56-29.84-6.78
			c-1.32-2.26-1.96-4.71-2.08-7.32c-0.15-3.29-1.8-5.42-4.84-6.72c-3.64-1.56-4.86-0.97-5.1,3.14c-0.39,6.46,1.21,12.48,4.82,17.84
			c9.62,14.28,26.22,18.23,41.32,8.63C517.63,507.04,520.63,507.78,521.68,511.97z"/>
		<path class="st6" d="M403.63,415.69c1.86,4.01,0.32,6.18-2.97,8.36c-18.68,12.39-47.63,5-57.49-14.87
			c-6.08-12.25-6.33-24.86-2.28-37.72c2.69-8.55,5.47-17.07,8.1-25.63c1.31-4.25,3.4-5.51,7.28-3.72
			c11.18,5.15,22.3,10.43,33.47,15.6c12.07,5.59,24.18,11.11,36.26,16.69c2.97,1.37,4.19,3.67,2.79,6.76
			c-1.72,3.81-3.69,7.5-5.52,11.25c-2.1,4.3-4.11,8.64-6.25,12.92c-1.19,2.38-2.78,4.24-6.1,2.98c-4.09,1.08-7.21-0.92-10.32-2.63
			c-3.58-1.96-6.51-2.54-10.56-0.04c-8.89,5.49-17.17,4.41-25.13-2.34c-3.08-2.62-4.96-6.09-5.41-10.22c-0.44-4.03-1-7.9-5.84-9.29
			c-2.96-0.85-4.12-0.35-4.2,2.83c-0.26,10.54,2.52,19.93,11.56,26.26c10.59,7.42,21.79,8.15,33.27,1.89c1.68-0.92,3.31-2,5.32-2.05
			C401.59,412.69,403.26,413.06,403.63,415.69z"/>
		<path class="st6" d="M421.11,217.35c2.34,4.23,5.79,3.17,9.09,1.93c9.75-3.67,19.84-4.22,29.74-1.77
			c20.43,5.06,28.04,18.51,26.03,38.47c-0.23,2.33-1.45,2.79-3.29,1.93c-2.89-1.34-5.65-2.98-8.58-4.25
			c-1.97-0.85-1.54-2.44-1.63-3.88c-0.47-7.21-3.19-13.27-9.77-16.69c-5.7-2.96-12.02-3.26-18.35-2.48
			c-2.02,0.25-4.25,0.21-5.99,1.09c-5.35,2.72-10.06,1.08-14.85-1.38c-4.08-2.1-8.27-3.98-12.66-6.07
			C413.3,220.8,417.45,219.7,421.11,217.35z"/>
		<path class="st6" d="M530.68,309.95c2.54,2.72,4.9,2.82,8.23,0.5c11.72-8.15,25.84-7.01,38.36,2.88
			c11.8,9.32,17.81,22.07,21.03,36.39c0.17,0.78,0.28,1.69-0.35,2.15c-0.66,0.48-1.43-0.11-2.13-0.43c-2.55-1.17-5.12-2.3-7.68-3.43
			c-3.57-1.58-6.35-3.54-7.87-7.66c-2.12-5.76-5.84-10.76-10.4-15c-7.83-7.28-17.62-7.9-26.13-1.38c-2.07,1.59-3.55,1.7-5.79,0.52
			c-4.5-2.39-9.18-4.44-13.95-6.85C526.09,315.02,528.35,312.61,530.68,309.95z"/>
		<path class="st6" d="M403.92,415.78c-3.11-2.55-5.82-1.11-8.55,0.56c-12.95,7.9-30.11,5.38-40.13-5.92
			c-7.05-7.95-8.57-17.45-7.53-27.61c0.27-2.6,1.55-3.72,4.12-2.08c0.64,0.41,1.34,0.76,2.04,1.05c4.45,1.8,7.77,3.72,7.57,9.85
			c-0.24,7.26,4.77,11.67,11.37,14.2c6.73,2.57,12.79,1.25,18.11-3.33c1.96-1.69,3.67-1.85,5.82-0.82
			c4.48,2.15,8.98,4.27,13.72,6.52C408.25,410.51,407.02,413.81,403.92,415.78z"/>
		<path class="st6" d="M521.8,512.08c-2.41-2.61-4.77-2.52-7.56-0.6c-18.11,12.44-43.02,2.4-48.03-19.13
			c-1.11-4.76-0.95-9.36-0.42-14.08c0.27-2.38,1.14-3.2,3.48-1.88c2.33,1.32,4.73,2.59,7.23,3.53c2.18,0.82,2.72,1.97,2.57,4.28
			c-0.84,13.12,12.47,20.63,21.77,18.78c3.27-0.65,5.92-2.42,8.28-4.58c1.93-1.76,3.69-1.8,5.9-0.68c4.33,2.19,8.73,4.21,13.27,6.51
			C526.67,507.26,524.4,509.64,521.8,512.08z"/>
		<path class="st6" d="M506.6,422.97c4.82,0.62,6.34-2.19,7.3-5.9c2.6-10.04,4.52-20.23,6.41-30.41
			c2.33-12.55,8.38-23.57,14.11-34.72c3.09-6.03,6.43-11.92,10.99-17.03c8.74-9.77,16.19-6.88,22,1.66
			c10.39,15.27,10.95,31.26,2.66,47.9c-9.78,19.62-21.45,38.06-33.2,56.5c-2.29,3.59-4.47,3.92-8.04,2.15
			c-7.89-3.93-15.93-7.55-24.09-11.5C502.93,428.23,503.49,425.57,506.6,422.97z"/>
		<path class="st6" d="M506.7,422.69c-0.54,2.88-1.27,5.58-2.08,8.49c-4.94-1.99-9.79-4.24-14.68-6.38
			c-1.76-0.77-2.14-1.84-1.58-3.62c1.38-4.37,2.69-8.77,3.91-13.19c0.51-1.87,1.75-1.74,2.94-1.2c3.02,1.36,5.98,2.86,8.92,4.38
			c2.25,1.17,0.78,2.98,0.42,4.36C503.82,418.35,503.46,420.85,506.7,422.69z"/>
		<path class="st6" d="M597.65,375.94c-1.55,6.48-1.55,6.49-7.23,3.66c-2.27-1.13-5.32-1.73-6.57-3.56
			c-1.34-1.95,0.72-4.82,0.88-7.35c0.12-1.91,0.27-3.81,0.33-5.72c0.06-1.89,0.01-3.79,0.01-6.29c4.58,2.14,9.02,4.14,13.36,6.31
			c1.23,0.61,0.78,2.11,0.65,3.18C598.71,369.35,598.16,372.5,597.65,375.94z"/>
		<path class="st6" d="M495.31,396.34c0.29-5.72,2.07-10.95,3.27-16.29c0.37-1.67,1.22-1.94,2.77-1.15
			c2.83,1.45,5.74,2.74,8.66,4.03c1.41,0.62,1.36,1.76,1.14,2.89c-0.89,4.63-1.82,9.26-2.82,13.88c-0.32,1.48-0.94,2.66-2.91,1.65
			C502.14,399.67,498.79,398.14,495.31,396.34z"/>
		<path class="st6" d="M563.28,442.43c-2.29,3.56-4.53,6.83-6.53,10.24c-1.14,1.94-2.47,2.36-4.37,1.38
			c-3.06-1.58-7.5-2.45-8.79-4.95c-1.32-2.56,2.63-5.49,4.34-8.22c4.59-7.34,4.61-7.33,12.43-3.58c0.58,0.28,1.13,0.69,1.74,0.8
			C565.2,438.64,565.2,440.12,563.28,442.43z"/>
		<path class="st6" d="M578.21,415.05c1.85,0.86,0.74,1.76,0.29,2.54c-2.23,3.85-4.58,7.63-6.73,11.52
			c-0.99,1.8-2.21,2.25-3.97,1.39c-2.97-1.45-6.98-2.22-8.59-4.61c-2-2.96,1.95-5.59,3.43-8.27c4.48-8.12,4.57-8.07,12.62-4.03
			C576.16,414.03,577.07,414.49,578.21,415.05z"/>
		<path class="st6" d="M591.73,392.43c-2.15,4.37-4.31,8.44-6.2,12.63c-0.86,1.91-2.06,2.14-3.63,1.4
			c-3.01-1.41-6.79-2.27-8.73-4.62c-2.6-3.16,1.63-5.81,2.89-8.49c4.51-9.53,2.41-9.28,12.28-4.35
			C589.7,389.67,592.03,389.65,591.73,392.43z"/>
		<path class="st6" d="M529.16,330.46c0.38,0.16,0.49,0.22,0.61,0.28c4.85,2.48,4.8,2.45,1.93,7.2c-1.78,2.94-3.47,5.93-5.07,8.97
			c-0.99,1.88-2.18,2.2-3.98,1.14c-1.31-0.77-2.7-1.44-4.1-2.04c-6.56-2.82-6.24-1.11-2.86-8.35c0.64-1.37,1.74-2.51,2.57-3.79
			C522.21,327.78,522.21,327.78,529.16,330.46z"/>
		<path class="st6" d="M508.29,352.76c4.4,0.03,7.76,2.39,11.32,4.2c1.69,0.86,0.67,2.3,0.24,3.36c-1.68,4.13-3.52,8.19-5.24,12.3
			c-0.65,1.57-1.57,1.76-3,1.03c-2.61-1.33-5.22-2.69-7.92-3.81c-1.94-0.81-1.53-2.15-1.06-3.46
			C504.27,361.83,505.62,357.16,508.29,352.76z"/>
		<path class="st6" d="M415.6,348.76c-9.33-4.03-18.4-8.13-27.48-12.21c-1.52-0.68-2.01-1.6-1.48-3.31
			c5.29-17.09,9.91-34.4,16.91-50.94c3.53-8.34,6.21-17.11,11.69-24.48c9.16-12.34,21.47-18.58,36.92-18.11
			c7.26,0.22,11.24,4.79,11.12,12.29c-0.06,3.75-0.84,7.43-2,10.92c-5.22,15.69-11.02,31.18-21.26,44.41
			c-6.8,8.78-14.12,17.16-20.36,26.37c-2.41,3.56-2.11,5.2,1.67,8.11C420.22,344.74,419.4,347.86,415.6,348.76z"/>
		<path class="st6" d="M415.57,348.97c1.63-2.38,2.24-5.68,5.68-6.89c2.67,0.31,4.61-0.53,5.68-2.69c1.75-3.54,4.14-3.84,7.34-1.98
			c1.97,1.15,4.09,2.04,6.16,2.99c1.47,0.68,1.85,1.41,0.8,2.91c-2.63,3.74-5.13,7.57-7.62,11.41c-0.97,1.49-1.94,2.1-3.75,1.18
			C425.21,353.55,420.49,351.36,415.57,348.97z"/>
		<path class="st6" d="M395.72,247.9c-1.35-1.15-0.5-1.94,0.06-2.77c1.94-2.85,4.09-5.52,6.47-8.02c4.49-4.72,4.46-4.76,10.29-1.95
			c1.84,0.88,3.58,2,5.46,2.75c2.25,0.89,2.54,1.93,0.53,3.3c-3.97,2.68-7.03,6.28-10,9.93c-1.22,1.5-2.27,1.7-3.91,0.88
			C401.77,250.61,398.84,249.36,395.72,247.9z"/>
		<path class="st6" d="M457.97,321.72c-2.72,3.38-5.42,6.47-7.76,9.8c-1.3,1.85-2.44,2.24-4.41,1.21c-2.48-1.3-5.03-2.52-7.64-3.52
			c-2.52-0.96-2.33-2.18-0.86-3.94c2.78-3.33,5.52-6.7,8.22-10.09c0.97-1.21,2.15-2.1,3.62-1.46c3.16,1.37,6.28,2.87,9.29,4.55
			C460.28,319.3,458.15,320.42,457.97,321.72z"/>
		<path class="st6" d="M366.47,326.44c-2.32-1.09-1.32-2.78-0.96-4.08c1.11-4.04,2.47-8.01,3.66-12.03c0.6-2.02,1.55-2.78,3.56-1.52
			c1.18,0.74,2.48,1.3,3.76,1.85c7.17,3.08,6.78,1.6,4.29,9.86c-0.81,2.68-1.71,5.34-2.37,8.06c-0.57,2.34-1.58,2.86-3.76,1.68
			C372.1,328.86,369.38,327.76,366.47,326.44z"/>
		<path class="st6" d="M385.61,264.63c4.58-9.84,4.55-9.79,14-4.8c2.11,1.12,2.74,2.1,1.57,4.43c-1.82,3.64-3.31,7.46-4.78,11.26
			c-0.81,2.09-1.85,2.93-3.97,1.61c-0.97-0.6-2.05-1.04-3.08-1.55C382.44,272.19,382.44,272.19,385.61,264.63z"/>
		<path class="st6" d="M373.96,298.92c-0.67-4.77,1.97-8.55,3.39-12.63c1.85-5.35,2.06-5.28,7.08-2.79
			c7.04,3.49,7.05,3.5,4.61,10.99c-0.59,1.82-1.52,3.57-1.81,5.43c-0.64,4.03-2.56,4.62-5.89,2.76
			C379,301.38,376.57,300.26,373.96,298.92z"/>
		<path class="st6" d="M468.24,271.74c1.25-2.96,0.87-7.02,3.24-8.22c2.25-1.14,4.85,2.26,7.53,2.85c4.01,0.89,4.83,2.84,3.29,6.5
			c-1.43,3.41-2.52,6.96-3.68,10.47c-0.77,2.32-2,2.53-4.03,1.39c-2-1.12-4.12-2.06-6.27-2.83c-2.84-1.01-3.47-2.66-2.14-5.3
			C466.93,275.13,467.5,273.56,468.24,271.74z"/>
		<path class="st6" d="M470.04,302.13c-4.57,9.1-4.48,8.9-13.37,4.9c-3.36-1.51-3.55-2.69-1.7-5.62c2.02-3.2,3.45-6.79,5.02-10.27
			c0.77-1.71,1.74-2.35,3.5-1.45c1.02,0.52,2.09,0.93,3.11,1.43C474.05,294.78,474.05,294.78,470.04,302.13z"/>
		<path class="st6" d="M511.07,480.19c-2.01,3.12-3.72,6.12-5.72,8.9c-3.32,4.61-8.1,6.17-12.32,3.55
			c-4.59-2.84-6.01-6.02-3.71-11.81c2.54-6.4,5.56-12.6,8.28-18.93c0.85-1.97,1.99-1.89,3.64-1.11c4.96,2.32,9.94,4.59,14.94,6.81
			c1.55,0.69,1.81,1.48,0.89,2.92C515.06,473.63,513.17,476.81,511.07,480.19z"/>
		<path class="st6" d="M529.78,473.95c2.07,1.05,3.83,2.16,5.74,2.81c3.81,1.29,3.71,3.19,1.57,6.07c-2.27,3.06-4.28,6.33-6.24,9.6
			c-0.97,1.62-1.9,2.07-3.64,1.11c-2.79-1.54-5.6-3.1-8.56-4.25c-2.03-0.79-1.41-1.66-0.68-2.81c2.31-3.67,4.63-7.34,6.97-10.99
			C526.03,473.8,527.23,472.27,529.78,473.95z"/>
		<path class="st6" d="M488.1,454.65c1.51,0.71,1.84,1.51,1.24,2.88c-1.88,4.2-3.71,8.43-5.42,12.71c-0.85,2.13-1.98,2.34-3.81,1.23
			c-1.31-0.8-2.74-1.38-4.11-2.07c-5.53-2.78-5.56-2.79-3.15-8.4c0.96-2.24,2.48-4.32,2.99-6.64c0.99-4.45,3.34-4.24,6.52-2.56
			C484.16,452.75,486.02,453.61,488.1,454.65z"/>
		<path class="st6" d="M372.04,380.96c1.8-5.62,3.6-10.93,5.2-16.31c0.57-1.92,1.31-2.1,2.98-1.28c4.91,2.42,9.85,4.8,14.86,7.03
			c2.27,1.01,2.27,2.14,1.17,4.1c-3.07,5.44-5.85,11.04-8.33,16.78c-2.35,5.43-6.37,7.53-11.18,6.04c-5.43-1.68-7.23-4.97-6.07-11.3
			C370.96,384.4,371.52,382.83,372.04,380.96z"/>
		<path class="st6" d="M361.81,375.29c-0.94-0.43-1.64-0.74-2.33-1.08c-8.33-4.14-8.36-4.15-5.67-13.13c0.8-2.67,1.1-6.25,2.96-7.63
			c2.04-1.51,4.68,1.58,7.14,2.44c5.71,2,5.66,2.09,3.8,7.86c-1.02,3.15-1.96,6.33-2.99,9.48
			C364.31,374.48,364.24,376.28,361.81,375.29z"/>
		<path class="st6" d="M417.99,382.11c-2.22,4.87-4.49,9.44-6.65,14.07c-0.73,1.56-1.61,1.62-3.02,0.91
			c-2.95-1.5-5.94-2.95-8.98-4.25c-1.7-0.73-1.14-1.78-0.63-2.78c2.07-4.11,4.21-8.18,6.32-12.27c0.48-0.93,1.05-2.07,2.26-1.52
			C410.95,377.94,415.1,378.7,417.99,382.11z"/>
		<path class="st6" d="M530.85,395.28c2.44-0.88,4.63-1.61,6.76-2.47c3.34-1.35,5.53,0.03,6.73,3.03c1.61,4.03,2.88,8.19,4.4,12.26
			c1.1,2.94-0.32,4.92-2.7,5.88c-2.33,0.95-4.59-0.04-5.8-2.41c-0.92-1.81-1.77-3.72-2.28-5.68c-0.69-2.65-2.15-2.77-4.28-1.87
			c-1.64,0.69-3.34,1.25-5.02,1.87c-2.71,1-4.47-0.11-5.5-2.59c-1.05-2.52-0.22-4.59,2.05-5.86
			C526.87,396.52,528.77,396.05,530.85,395.28z"/>
		<path class="st6" d="M557.23,388.05c-0.59,2.64-1.9,4.31-4.5,4.21c-2.61-0.1-4.06-1.75-4.94-4.15c-2.44-6.65-2.48-6.63-9.29-4.48
			c-4.03,1.27-6.15,0.55-7.1-2.66c-1.06-3.58,1.21-5.13,4.12-6.16c3.5-1.25,7-2.49,10.5-3.73c3.09-1.1,5.31-0.15,6.43,2.94
			C554.1,378.58,555.66,383.18,557.23,388.05z"/>
		<path class="st6" d="M548.09,361.76c-3.08,0.89-5.95,2.36-7.66-1.73c-1.27-3.03-0.34-5.05,2.44-6.16
			c3.9-1.56,7.95-2.75,11.88-4.25c3.23-1.24,5.31,0.12,6.45,2.92c1.64,4.01,2.9,8.17,4.39,12.24c1.04,2.83-0.44,4.55-2.73,5.44
			c-2.38,0.93-4.55,0.19-5.79-2.27c-0.46-0.91-0.79-1.88-1.17-2.83C553.79,359.82,553.79,359.82,548.09,361.76z"/>
		<path class="st6" d="M402.63,306.69c-1.81-4.16-1.36-5.61,2.35-7.1c3.79-1.52,7.63-2.93,11.51-4.19c3.11-1.01,5.62,0,6.87,3.12
			c1.41,3.55,2.75,7.15,3.85,10.81c0.84,2.77,0.57,5.29-2.68,6.62c-3.27,1.34-4.65-0.65-6-3.02c-1.25-2.19-0.84-5.59-3.27-6.66
			c-2.23-0.98-4.49,1.28-6.81,1.89C406.3,308.73,404.41,308.58,402.63,306.69z"/>
		<path class="st6" d="M441.34,273.55c-3.14-8.39-3.16-8.44-11.26-6.13c-2.84,0.81-4.78-0.02-5.87-2.64
			c-1.16-2.79,0.02-4.78,2.64-5.83c4.02-1.61,8.06-3.21,12.19-4.49c2.89-0.89,5.27,0.03,6.37,3.2c1.25,3.62,2.54,7.22,3.87,10.81
			c0.87,2.36,1.07,4.6-1.31,6.13C445.71,276.04,443.4,276.16,441.34,273.55z"/>
		<path class="st6" d="M417.01,278.98c3.76-1.35,7.27-2.53,10.71-3.9c2.96-1.18,5.15-0.29,6.31,2.44c1.8,4.23,3.41,8.55,4.81,12.92
			c0.78,2.43-0.66,4.32-2.81,5.26c-2.49,1.09-4.61-0.08-5.88-2.2c-1.03-1.73-1.7-3.74-2.18-5.71c-0.55-2.28-1.83-2.48-3.66-1.82
			c-1.32,0.48-2.66,0.92-3.93,1.5c-2.93,1.35-5.65,1.44-7.08-1.92C411.88,282.25,413.7,280.24,417.01,278.98z"/>
	</g>
	<text transform="matrix(1 0 0 1 70.7889 397.0869)" class="st10 st11 st12 st13">SISMOS</text>
	<text transform="matrix(1 0 0 1 166.2249 440.4058)" class="st14 st11 st15 st16">Walk for the future</text>
	<g>
		<path class="st1" d="M635.58,175.1c0-13.84,11.22-25.06,25.06-25.06c13.84,0,25.06,11.22,25.06,25.06
			c0,13.84-11.22,25.06-25.06,25.06c-3.21,0-6.27-0.63-9.09-1.72v79.9c3,0.26,6.02,0.42,9.09,0.42
			c57.25,0,103.66-46.41,103.66-103.66c0-57.25-46.41-103.66-103.66-103.66c-57.25,0-103.66,46.41-103.66,103.66
			c0,2.48,0.12,4.93,0.29,7.37h79.41C635.97,180.14,635.58,177.67,635.58,175.1z"/>
		<path class="st1" d="M660.64,457.09c-3.06,0-6.09,0.16-9.09,0.42v79.9c2.82-1.1,5.88-1.72,9.09-1.72
			c13.84,0,25.06,11.22,25.06,25.06c0,13.84-11.22,25.06-25.06,25.06c-13.84,0-25.06-11.22-25.06-25.06c0-3.26,0.64-6.36,1.77-9.21
			h-79.94c-0.27,3.04-0.43,6.1-0.43,9.21c0,57.25,46.41,103.66,103.66,103.66c57.25,0,103.66-46.41,103.66-103.66
			C764.29,503.5,717.89,457.09,660.64,457.09z"/>
		<path class="st1" d="M274.22,200.16c-13.84,0-25.06-11.22-25.06-25.06c0-13.84,11.22-25.06,25.06-25.06
			c13.84,0,25.06,11.22,25.06,25.06c0,2.57-0.39,5.04-1.11,7.37h79.41c0.17-2.44,0.29-4.89,0.29-7.37
			c0-57.25-46.41-103.66-103.66-103.66c-57.25,0-103.66,46.41-103.66,103.66c0,57.25,46.41,103.66,103.66,103.66
			c2.01,0,4-0.07,5.98-0.18v-79.16C278.29,199.88,276.29,200.16,274.22,200.16z"/>
		<path class="st1" d="M299.28,560.75c0,13.84-11.22,25.06-25.06,25.06c-13.84,0-25.06-11.22-25.06-25.06
			c0-13.84,11.22-25.06,25.06-25.06c2.07,0,4.06,0.28,5.98,0.75v-79.16c-1.98-0.11-3.97-0.18-5.98-0.18
			c-57.25,0-103.66,46.41-103.66,103.66c0,57.25,46.41,103.66,103.66,103.66c57.25,0,103.66-46.41,103.66-103.66
			c0-3.11-0.16-6.17-0.43-9.21h-79.94C298.64,554.39,299.28,557.49,299.28,560.75z"/>
	</g>
	<g class="st8">
		<path class="st9" d="M635.58,175.1c0-13.84,11.22-25.06,25.06-25.06c13.84,0,25.06,11.22,25.06,25.06
			c0,13.84-11.22,25.06-25.06,25.06c-3.21,0-6.27-0.63-9.09-1.72v79.9c3,0.26,6.02,0.42,9.09,0.42
			c57.25,0,103.66-46.41,103.66-103.66c0-57.25-46.41-103.66-103.66-103.66c-57.25,0-103.66,46.41-103.66,103.66
			c0,2.48,0.12,4.93,0.29,7.37h79.41C635.97,180.14,635.58,177.67,635.58,175.1z"/>
		<path class="st9" d="M660.64,457.09c-3.06,0-6.09,0.16-9.09,0.42v79.9c2.82-1.1,5.88-1.72,9.09-1.72
			c13.84,0,25.06,11.22,25.06,25.06c0,13.84-11.22,25.06-25.06,25.06c-13.84,0-25.06-11.22-25.06-25.06c0-3.26,0.64-6.36,1.77-9.21
			h-79.94c-0.27,3.04-0.43,6.1-0.43,9.21c0,57.25,46.41,103.66,103.66,103.66c57.25,0,103.66-46.41,103.66-103.66
			C764.29,503.5,717.89,457.09,660.64,457.09z"/>
		<path class="st9" d="M274.22,200.16c-13.84,0-25.06-11.22-25.06-25.06c0-13.84,11.22-25.06,25.06-25.06
			c13.84,0,25.06,11.22,25.06,25.06c0,2.57-0.39,5.04-1.11,7.37h79.41c0.17-2.44,0.29-4.89,0.29-7.37
			c0-57.25-46.41-103.66-103.66-103.66c-57.25,0-103.66,46.41-103.66,103.66c0,57.25,46.41,103.66,103.66,103.66
			c2.01,0,4-0.07,5.98-0.18v-79.16C280.21,199.41,276.29,200.16,274.22,200.16z"/>
		<path class="st9" d="M299.28,560.75c0,13.84-11.22,25.06-25.06,25.06c-13.84,0-25.06-11.22-25.06-25.06
			c0-13.84,11.22-25.06,25.06-25.06c2.07,0,4.06,0.28,5.98,0.75v-79.16c-1.98-0.11-3.97-0.18-5.98-0.18
			c-57.25,0-103.66,46.41-103.66,103.66c0,57.25,46.41,103.66,103.66,103.66c57.25,0,103.66-46.41,103.66-103.66
			c0-3.11-0.16-6.17-0.43-9.21h-79.94C298.64,554.39,299.28,557.49,299.28,560.75z"/>
	</g>
</g>
</svg>
